<?xml version="1.0" encoding="UTF-8" standalone="no"?>
<!-- Created with Inkscape (http://www.inkscape.org/) -->

<svg
   xmlns:dc="http://purl.org/dc/elements/1.1/"
   xmlns:cc="http://creativecommons.org/ns#"
   xmlns:rdf="http://www.w3.org/1999/02/22-rdf-syntax-ns#"
   xmlns:svg="http://www.w3.org/2000/svg"
   xmlns="http://www.w3.org/2000/svg"
   xmlns:sodipodi="http://sodipodi.sourceforge.net/DTD/sodipodi-0.dtd"
   xmlns:inkscape="http://www.inkscape.org/namespaces/inkscape"
   width="137.784mm"
   height="41.459095mm"
   viewBox="0 0 137.784 41.459095"
   version="1.1"
   id="svg8"
   inkscape:version="0.92.1 r15371"
   sodipodi:docname="memory_allocation.svg">
  <defs
     id="defs2" />
  <sodipodi:namedview
     id="base"
     pagecolor="#ffffff"
     bordercolor="#666666"
     borderopacity="1.0"
     inkscape:pageopacity="0.0"
     inkscape:pageshadow="2"
     inkscape:zoom="1.4"
     inkscape:cx="297.67704"
     inkscape:cy="-78.694837"
     inkscape:document-units="mm"
     inkscape:current-layer="layer1"
     showgrid="false"
     showguides="true"
     inkscape:guide-bbox="true"
     fit-margin-top="5"
     fit-margin-left="5"
     fit-margin-bottom="5"
     fit-margin-right="5"
     inkscape:window-width="1280"
     inkscape:window-height="961"
     inkscape:window-x="-4"
     inkscape:window-y="-4"
     inkscape:window-maximized="1">
    <sodipodi:guide
       position="5.0140237,2.7461744"
       orientation="1,0"
       id="guide4570"
       inkscape:locked="false" />
    <sodipodi:guide
       position="132.392,7.2818945"
       orientation="1,0"
       id="guide4572"
       inkscape:locked="false" />
  </sodipodi:namedview>
  <metadata
     id="metadata5">
    <rdf:RDF>
      <cc:Work
         rdf:about="">
        <dc:format>image/svg+xml</dc:format>
        <dc:type
           rdf:resource="http://purl.org/dc/dcmitype/StillImage" />
        <dc:title></dc:title>
      </cc:Work>
    </rdf:RDF>
  </metadata>
  <g
     inkscape:label="Layer 1"
     inkscape:groupmode="layer"
     id="layer1"
     transform="translate(12.006583,-7.6888591)">
    <g
       aria-label="Memory allocation"
       transform="scale(1.0638808,0.93995496)"
       style="font-style:normal;font-variant:normal;font-weight:normal;font-stretch:normal;font-size:13.12802601px;line-height:125%;font-family:'PT Sans Caption';-inkscape-font-specification:'PT Sans Caption';letter-spacing:0px;word-spacing:0px;fill:#000000;fill-opacity:1;stroke:none;stroke-width:0.70328712px;stroke-linecap:butt;stroke-linejoin:miter;stroke-opacity:1"
       id="text4487">
      <path
         d="M 2.118932,16.899592 2.2633403,15.429253 H 2.2108281 L 1.646323,16.702671 -0.91364204,20.77236 H -1.3074828 l -2.6912454,-4.082817 -0.538249,-1.247162 h -0.06564 l 0.2100484,1.444083 v 5.933868 h -1.2340345 v -9.189619 h 0.984602 l 3.1113421,4.686706 0.485737,0.99773 h 0.026256 l 0.45948086,-1.023986 2.95380584,-4.66045 h 1.0371141 v 9.189619 H 2.118932 Z"
         style="stroke-width:0.70328712px"
         id="path4574" />
      <path
         d="m 11.350396,22.255826 q -0.459481,0.341329 -1.142138,0.551378 -0.6826575,0.19692 -1.4834671,0.19692 -0.8664497,0 -1.5097229,-0.249433 -0.6301453,-0.26256 -1.0371141,-0.735169 -0.4069688,-0.472609 -0.6038892,-1.142138 -0.1969204,-0.66953 -0.1969204,-1.496595 0,-1.772284 0.8664497,-2.704374 0.8795778,-0.945217 2.494325,-0.945217 0.511993,0 1.023986,0.118152 0.511993,0.105024 0.918962,0.420097 0.406969,0.301944 0.656401,0.840193 0.262561,0.538249 0.262561,1.404699 0,0.210048 -0.01313,0.485737 -0.01313,0.275689 -0.05251,0.538249 H 6.6111788 q 0.026256,1.207778 0.5776331,1.824796 0.5513771,0.617017 1.8773077,0.617017 0.5513771,0 1.0502424,-0.183792 0.498865,-0.196921 0.774553,-0.459481 z m -0.905834,-3.583951 q 0.02626,-1.050242 -0.433225,-1.483467 -0.4463524,-0.433224 -1.26029,-0.433224 -0.9189618,0 -1.4572109,0.433224 -0.5382491,0.433225 -0.6301452,1.483467 z"
         style="stroke-width:0.70328712px"
         id="path4576" />
      <path
         d="M 18.054304,22.820332 V 19.03946 q 0,-0.551377 -0.05251,-0.971474 -0.05251,-0.420097 -0.210048,-0.695785 -0.157536,-0.288817 -0.446353,-0.420097 -0.275689,-0.144408 -0.722041,-0.144408 -0.695786,0 -1.168395,0.39384 -0.459481,0.380713 -0.656401,0.984602 v 4.634194 h -1.207779 v -6.892214 h 0.827066 l 0.236305,0.918962 h 0.13128 q 0.420097,-0.472609 0.958346,-0.787682 0.551377,-0.3282 1.391571,-0.3282 0.708913,0 1.181522,0.301944 0.485737,0.301945 0.735169,1.010858 0.393841,-0.603889 0.99773,-0.958346 0.603889,-0.354456 1.352187,-0.354456 0.630145,0 1.06337,0.144408 0.446353,0.144408 0.722042,0.498865 0.275688,0.354457 0.406968,0.958346 0.131281,0.603889 0.131281,1.522851 v 3.964664 h -1.207779 v -3.964664 q 0,-0.525121 -0.06564,-0.905834 -0.05251,-0.380713 -0.210048,-0.630145 -0.157537,-0.262561 -0.446353,-0.380713 -0.275689,-0.13128 -0.73517,-0.13128 -0.748297,0 -1.181522,0.39384 -0.433225,0.393841 -0.617017,1.181523 v 4.437273 z"
         style="stroke-width:0.70328712px"
         id="path4578" />
      <path
         d="m 25.658919,19.380789 q 0,-0.853322 0.223176,-1.522851 0.223177,-0.682658 0.656402,-1.155267 0.433224,-0.472608 1.050242,-0.722041 0.630145,-0.249432 1.430954,-0.249432 0.840194,0 1.470339,0.275688 0.630146,0.275689 1.050242,0.774554 0.420097,0.485737 0.617018,1.155266 0.210048,0.656401 0.210048,1.444083 0,0.840193 -0.236304,1.509723 -0.223177,0.669529 -0.656402,1.142138 -0.420096,0.472609 -1.050242,0.722041 -0.617017,0.249433 -1.404699,0.249433 -0.866449,0 -1.496594,-0.275689 -0.630146,-0.275688 -1.050243,-0.761425 -0.406968,-0.485737 -0.617017,-1.142138 -0.19692,-0.66953 -0.19692,-1.444083 z m 1.286546,0 q 0,0.485737 0.105025,0.958346 0.118152,0.459481 0.367584,0.827065 0.249433,0.367585 0.643274,0.590761 0.39384,0.223177 0.971474,0.223177 2.047972,0 2.047972,-2.599349 0,-0.511993 -0.118153,-0.984602 -0.105024,-0.472609 -0.354456,-0.827066 -0.236305,-0.367585 -0.630146,-0.590761 -0.39384,-0.223176 -0.945217,-0.223176 -1.023987,0 -1.562236,0.656401 -0.525121,0.643273 -0.525121,1.969204 z"
         style="stroke-width:0.70328712px"
         id="path4580" />
      <path
         d="m 37.905521,17.070256 q -0.223176,-0.06564 -0.433225,-0.118152 -0.210048,-0.05251 -0.39384,-0.05251 -0.695786,0 -1.089627,0.354457 -0.380712,0.354456 -0.472608,0.892705 v 4.673578 h -1.207779 v -6.892214 h 0.840194 l 0.236304,0.918962 h 0.118152 q 0.301945,-0.511993 0.695786,-0.787682 0.406969,-0.288816 1.010858,-0.288816 0.183792,0 0.433225,0.03938 0.249432,0.02626 0.498865,0.105024 z"
         style="stroke-width:0.70328712px"
         id="path4582" />
      <path
         d="m 41.448242,20.286623 0.406969,1.32593 h 0.170664 l 0.3282,-1.339058 1.430955,-4.345377 h 1.234035 l -2.258021,6.235812 q -0.249432,0.643274 -0.511993,1.247163 -0.249432,0.603889 -0.564505,1.06337 -0.301944,0.472609 -0.682657,0.748297 -0.367585,0.288817 -0.853322,0.288817 -0.525121,0 -0.892706,-0.118152 l 0.196921,-1.023986 q 0.19692,0.06564 0.393841,0.06564 0.26256,0 0.472608,-0.06564 0.223177,-0.06564 0.406969,-0.236305 0.183793,-0.170664 0.328201,-0.485737 0.157536,-0.301944 0.288816,-0.787681 l -3.085086,-6.931598 h 1.430955 z"
         style="stroke-width:0.70328712px"
         id="path4584" />
      <path
         d="m 49.5628,16.361343 q 1.181522,-0.564505 2.92755,-0.564505 0.787681,0 1.26029,0.210048 0.485737,0.19692 0.748298,0.511993 0.26256,0.315073 0.341328,0.708913 0.0919,0.380713 0.0919,0.761426 0,0.722041 -0.05251,1.457211 -0.05251,0.722041 -0.05251,1.575363 0,0.498865 0.03939,0.971474 0.05251,0.459481 0.157536,0.853322 H 54.144481 L 53.81628,21.796346 H 53.685 q -0.144408,0.19692 -0.354457,0.406968 -0.210048,0.196921 -0.498864,0.354457 -0.288817,0.157536 -0.66953,0.262561 -0.367585,0.105024 -0.853322,0.105024 -0.485736,0 -0.892705,-0.13128 -0.406969,-0.144409 -0.708914,-0.393841 -0.288816,-0.249433 -0.459481,-0.603889 -0.170664,-0.367585 -0.170664,-0.813938 0,-0.590761 0.249433,-1.023986 0.26256,-0.433225 0.669529,-0.708914 0.406969,-0.275688 0.918962,-0.406968 0.525121,-0.131281 1.037114,-0.131281 0.406969,0 0.682657,0.01313 0.288817,0.01313 0.472609,0.03938 0.19692,0.01313 0.328201,0.03938 0.13128,0.01313 0.236304,0.02626 0.02626,-0.196921 0.03938,-0.341329 0.01313,-0.144408 0.01313,-0.367585 0,-0.367584 -0.07877,-0.617017 -0.07877,-0.249432 -0.26256,-0.393841 -0.170665,-0.157536 -0.472609,-0.223176 -0.301945,-0.06564 -0.73517,-0.06564 -0.249432,0 -0.551377,0.03938 -0.301944,0.03938 -0.603889,0.118152 -0.301945,0.06564 -0.603889,0.170664 -0.288817,0.105025 -0.525121,0.223177 z m 4.109072,3.334518 q -0.105024,-0.01313 -0.223176,-0.03938 -0.118153,-0.02626 -0.301945,-0.03938 -0.170664,-0.01313 -0.420097,-0.02626 -0.236304,-0.01313 -0.590761,-0.01313 -0.813937,0 -1.299674,0.288817 -0.472609,0.288816 -0.472609,0.984602 0,0.525121 0.367584,0.787681 0.380713,0.262561 0.971474,0.262561 0.433225,0 0.761426,-0.105024 0.341328,-0.118153 0.577633,-0.275689 0.249432,-0.170664 0.393841,-0.367585 0.157536,-0.210048 0.236304,-0.406969 z"
         style="stroke-width:0.70328712px"
         id="path4586" />
      <path
         d="m 58.647802,20.995536 q 0,0.538249 0.19692,0.761425 0.210048,0.223177 0.551377,0.223177 0.210049,0 0.406969,-0.02626 0.19692,-0.02626 0.472609,-0.105024 l 0.157536,0.892705 q -0.13128,0.05251 -0.315072,0.0919 -0.183793,0.05251 -0.380713,0.0919 -0.196921,0.03938 -0.393841,0.05251 -0.19692,0.02626 -0.354457,0.02626 -0.708913,0 -1.12901,-0.354457 -0.420097,-0.367584 -0.420097,-1.207778 v -7.811176 h 1.207779 z"
         style="stroke-width:0.70328712px"
         id="path4588" />
      <path
         d="m 63.057996,20.995536 q 0,0.538249 0.19692,0.761425 0.210049,0.223177 0.551378,0.223177 0.210048,0 0.406968,-0.02626 0.196921,-0.02626 0.472609,-0.105024 l 0.157537,0.892705 q -0.131281,0.05251 -0.315073,0.0919 -0.183792,0.05251 -0.380713,0.0919 -0.19692,0.03938 -0.393841,0.05251 -0.19692,0.02626 -0.354456,0.02626 -0.708914,0 -1.129011,-0.354457 -0.420096,-0.367584 -0.420096,-1.207778 v -7.811176 h 1.207778 z"
         style="stroke-width:0.70328712px"
         id="path4590" />
      <path
         d="m 65.735299,19.380789 q 0,-0.853322 0.223176,-1.522851 0.223176,-0.682658 0.656401,-1.155267 0.433225,-0.472608 1.050242,-0.722041 0.630146,-0.249432 1.430955,-0.249432 0.840194,0 1.470339,0.275688 0.630145,0.275689 1.050242,0.774554 0.420097,0.485737 0.617017,1.155266 0.210049,0.656401 0.210049,1.444083 0,0.840193 -0.236305,1.509723 -0.223176,0.669529 -0.656401,1.142138 -0.420097,0.472609 -1.050242,0.722041 -0.617017,0.249433 -1.404699,0.249433 -0.866449,0 -1.496595,-0.275689 -0.630145,-0.275688 -1.050242,-0.761425 -0.406969,-0.485737 -0.617017,-1.142138 -0.19692,-0.66953 -0.19692,-1.444083 z m 1.286546,0 q 0,0.485737 0.105024,0.958346 0.118153,0.459481 0.367585,0.827065 0.249433,0.367585 0.643273,0.590761 0.393841,0.223177 0.971474,0.223177 2.047972,0 2.047972,-2.599349 0,-0.511993 -0.118152,-0.984602 -0.105024,-0.472609 -0.354457,-0.827066 -0.236304,-0.367585 -0.630145,-0.590761 -0.393841,-0.223176 -0.945218,-0.223176 -1.023986,0 -1.562235,0.656401 -0.525121,0.643273 -0.525121,1.969204 z"
         style="stroke-width:0.70328712px"
         id="path4592" />
      <path
         d="m 79.583518,22.347723 q -0.459481,0.3282 -1.076498,0.485737 -0.617017,0.170664 -1.299674,0.170664 -0.86645,0 -1.483467,-0.262561 -0.60389,-0.26256 -0.984602,-0.735169 -0.380713,-0.472609 -0.551377,-1.142138 -0.170665,-0.66953 -0.170665,-1.483467 0,-1.746028 0.840194,-2.691246 0.853322,-0.958345 2.441813,-0.958345 0.695785,0 1.207778,0.13128 0.511993,0.118152 0.918962,0.301944 l -0.315073,0.984602 q -0.354456,-0.183792 -0.774553,-0.288816 -0.406969,-0.105024 -0.892706,-0.105024 -2.139868,0 -2.139868,2.625605 0,0.498865 0.118152,0.971474 0.118152,0.459481 0.380713,0.827065 0.26256,0.354457 0.682657,0.577633 0.433225,0.223177 1.050242,0.223177 0.551377,0 0.958346,-0.144408 0.420097,-0.157537 0.695786,-0.367585 z"
         style="stroke-width:0.70328712px"
         id="path4594" />
      <path
         d="m 81.254675,16.361343 q 1.181523,-0.564505 2.92755,-0.564505 0.787682,0 1.260291,0.210048 0.485737,0.19692 0.748297,0.511993 0.262561,0.315073 0.341329,0.708913 0.0919,0.380713 0.0919,0.761426 0,0.722041 -0.05251,1.457211 -0.05251,0.722041 -0.05251,1.575363 0,0.498865 0.03938,0.971474 0.05251,0.459481 0.157536,0.853322 h -0.879577 l -0.328201,-1.050242 h -0.13128 q -0.144409,0.19692 -0.354457,0.406968 -0.210048,0.196921 -0.498865,0.354457 -0.288817,0.157536 -0.669529,0.262561 -0.367585,0.105024 -0.853322,0.105024 -0.485737,0 -0.892706,-0.13128 -0.406969,-0.144409 -0.708913,-0.393841 -0.288817,-0.249433 -0.459481,-0.603889 -0.170664,-0.367585 -0.170664,-0.813938 0,-0.590761 0.249432,-1.023986 0.262561,-0.433225 0.669529,-0.708914 0.406969,-0.275688 0.918962,-0.406968 0.525121,-0.131281 1.037114,-0.131281 0.406969,0 0.682658,0.01313 0.288816,0.01313 0.472609,0.03938 0.19692,0.01313 0.3282,0.03938 0.13128,0.01313 0.236305,0.02626 0.02626,-0.196921 0.03938,-0.341329 0.01313,-0.144408 0.01313,-0.367585 0,-0.367584 -0.07877,-0.617017 -0.07877,-0.249432 -0.262561,-0.393841 -0.170664,-0.157536 -0.472609,-0.223176 -0.301944,-0.06564 -0.735169,-0.06564 -0.249433,0 -0.551377,0.03938 -0.301945,0.03938 -0.60389,0.118152 -0.301944,0.06564 -0.603889,0.170664 -0.288816,0.105025 -0.525121,0.223177 z m 4.109073,3.334518 q -0.105025,-0.01313 -0.223177,-0.03938 -0.118152,-0.02626 -0.301944,-0.03938 -0.170665,-0.01313 -0.420097,-0.02626 -0.236305,-0.01313 -0.590761,-0.01313 -0.813938,0 -1.299675,0.288817 -0.472609,0.288816 -0.472609,0.984602 0,0.525121 0.367585,0.787681 0.380713,0.262561 0.971474,0.262561 0.433225,0 0.761425,-0.105024 0.341329,-0.118153 0.577633,-0.275689 0.249433,-0.170664 0.393841,-0.367585 0.157536,-0.210048 0.236305,-0.406969 z"
         style="stroke-width:0.70328712px"
         id="path4596" />
      <path
         d="m 88.134173,15.928118 h 1.168394 v -1.391571 l 1.207778,-0.315072 v 1.706643 h 2.074228 v 1.023986 h -2.074228 v 3.518311 q 0,0.827066 0.210049,1.168394 0.210048,0.341329 0.722041,0.341329 0.328201,0 0.590761,-0.06564 0.275689,-0.07877 0.617017,-0.196921 l 0.275689,0.853322 q -0.420097,0.183792 -0.905834,0.301945 -0.472609,0.13128 -1.023986,0.13128 -0.918962,0 -1.312802,-0.498865 -0.380713,-0.498865 -0.380713,-1.627875 v -3.92528 h -1.168394 z"
         style="stroke-width:0.70328712px"
         id="path4598" />
      <path
         d="m 94.623312,15.928118 h 1.207778 v 6.892214 H 94.623312 Z M 94.37388,14.287115 q 0,-0.301945 0.236304,-0.538249 0.236304,-0.249433 0.617017,-0.249433 0.380713,0 0.630146,0.249433 0.249432,0.236304 0.249432,0.538249 0,0.301944 -0.249432,0.538249 -0.249433,0.223176 -0.630146,0.223176 -0.380713,0 -0.617017,-0.223176 -0.236304,-0.236305 -0.236304,-0.538249 z"
         style="stroke-width:0.70328712px"
         id="path4600" />
      <path
         d="m 98.068192,19.380789 q 0,-0.853322 0.223176,-1.522851 0.223177,-0.682658 0.656402,-1.155267 0.433225,-0.472608 1.050242,-0.722041 0.630148,-0.249432 1.430958,-0.249432 0.84019,0 1.47034,0.275688 0.63014,0.275689 1.05024,0.774554 0.42009,0.485737 0.61701,1.155266 0.21005,0.656401 0.21005,1.444083 0,0.840193 -0.2363,1.509723 -0.22318,0.669529 -0.6564,1.142138 -0.4201,0.472609 -1.05024,0.722041 -0.61702,0.249433 -1.4047,0.249433 -0.86645,0 -1.496598,-0.275689 -0.630146,-0.275688 -1.050242,-0.761425 -0.406969,-0.485737 -0.617018,-1.142138 -0.19692,-0.66953 -0.19692,-1.444083 z m 1.286547,0 q 0,0.485737 0.105024,0.958346 0.118152,0.459481 0.367584,0.827065 0.249433,0.367585 0.643273,0.590761 0.39384,0.223177 0.97147,0.223177 2.04798,0 2.04798,-2.599349 0,-0.511993 -0.11816,-0.984602 -0.10502,-0.472609 -0.35445,-0.827066 -0.23631,-0.367585 -0.63015,-0.590761 -0.39384,-0.223176 -0.94522,-0.223176 -1.02398,0 -1.56223,0.656401 -0.525121,0.643273 -0.525121,1.969204 z"
         style="stroke-width:0.70328712px"
         id="path4602" />
      <path
         d="m 111.61447,22.820332 v -3.807128 q 0,-1.102754 -0.35446,-1.654131 -0.35446,-0.551377 -1.26029,-0.551377 -0.80081,0 -1.33906,0.420096 -0.52512,0.406969 -0.73517,1.050243 v 4.542297 h -1.20778 v -6.892214 h 0.8402 l 0.2363,0.918962 h 0.11815 q 0.38072,-0.472609 0.98461,-0.787682 0.61701,-0.3282 1.47033,-0.3282 0.60389,0 1.06337,0.144408 0.45949,0.13128 0.76143,0.485737 0.31507,0.341328 0.47261,0.93209 0.15754,0.577633 0.15754,1.470339 v 4.05656 z"
         style="stroke-width:0.70328712px"
         id="path4604" />
    </g>
    <g
       id="g4551"
       transform="translate(-16.630952,-5.7641345)">
      <path
         id="rect4501"
         d="m 18.339155,31.849703 h 20.774071 c 4.610824,0 8.322786,1.930642 8.322786,4.328795 v 8.540326 c 0,2.398152 -3.711962,4.328795 -8.322786,4.328795 H 18.339155 c -4.610823,0 -8.322786,-1.930643 -8.322786,-4.328795 v -8.540326 c 0,-2.398153 3.711963,-4.328795 8.322786,-4.328795 z"
         style="opacity:1;vector-effect:none;fill:#00ff00;fill-opacity:1;fill-rule:nonzero;stroke:#209a39;stroke-width:0.78399998;stroke-linecap:butt;stroke-linejoin:miter;stroke-miterlimit:4;stroke-dasharray:none;stroke-dashoffset:0;stroke-opacity:1"
         inkscape:connector-curvature="0" />
      <g
         id="text4491"
         style="font-style:normal;font-variant:normal;font-weight:normal;font-stretch:normal;font-size:4.93888855px;line-height:125%;font-family:'PT Sans Caption';-inkscape-font-specification:'PT Sans Caption';letter-spacing:0px;word-spacing:0px;fill:#000000;fill-opacity:1;stroke:none;stroke-width:0.26458332px;stroke-linecap:butt;stroke-linejoin:miter;stroke-opacity:1"
         aria-label="Static">
        <path
           id="path4507"
           style="stroke-width:0.26458332px"
           d="m 23.903096,41.266045 q 0,-0.202494 -0.13335,-0.321027 -0.13335,-0.118534 -0.335845,-0.202495 -0.202494,-0.0889 -0.434622,-0.162983 -0.232128,-0.07902 -0.434622,-0.197556 -0.202495,-0.118533 -0.335845,-0.306211 -0.13335,-0.187678 -0.13335,-0.48895 0,-0.419805 0.306212,-0.676627 0.311149,-0.256823 0.884061,-0.256823 0.330905,0 0.607483,0.04939 0.276578,0.04939 0.434622,0.128411 l -0.153106,0.414867 q -0.123472,-0.06421 -0.370416,-0.113594 -0.246945,-0.05433 -0.543278,-0.05433 -0.335844,0 -0.503767,0.143228 -0.167922,0.143227 -0.167922,0.330905 0,0.192617 0.13335,0.31115 0.13335,0.118533 0.335845,0.212372 0.202494,0.0889 0.434622,0.172861 0.232128,0.08396 0.434622,0.207434 0.202495,0.123472 0.335844,0.306211 0.13335,0.1778 0.13335,0.459316 0,0.232128 -0.0889,0.419806 -0.0889,0.187678 -0.256822,0.321028 -0.167922,0.13335 -0.404989,0.207433 -0.237066,0.06914 -0.538338,0.06914 -0.404989,0 -0.686506,-0.06421 -0.276578,-0.05927 -0.419805,-0.128411 l 0.162983,-0.429684 q 0.123472,0.06421 0.370416,0.13335 0.251884,0.06421 0.553156,0.06421 0.172861,0 0.321028,-0.02963 0.148166,-0.03457 0.256822,-0.09878 0.113594,-0.06914 0.172861,-0.172861 0.06421,-0.103717 0.06421,-0.246945 z"
           inkscape:connector-curvature="0" />
        <path
           id="path4509"
           style="stroke-width:0.26458332px"
           d="m 24.748031,39.581884 h 0.439561 v -0.523522 l 0.454378,-0.118533 v 0.642055 h 0.780345 v 0.385234 H 25.64197 v 1.323622 q 0,0.31115 0.07902,0.439561 0.07902,0.128411 0.271639,0.128411 0.123472,0 0.22225,-0.02469 0.103717,-0.02963 0.232128,-0.07408 l 0.103717,0.321028 q -0.158045,0.06914 -0.340784,0.113594 -0.1778,0.04939 -0.385233,0.04939 -0.345722,0 -0.493889,-0.187677 -0.143228,-0.187678 -0.143228,-0.612423 v -1.476727 h -0.439561 z"
           inkscape:connector-curvature="0" />
        <path
           id="path4511"
           style="stroke-width:0.26458332px"
           d="m 27.031264,39.744868 q 0.4445,-0.212373 1.101372,-0.212373 0.296333,0 0.474133,0.07902 0.182739,0.07408 0.281517,0.192616 0.09878,0.118534 0.128411,0.2667 0.03457,0.143228 0.03457,0.286456 0,0.271639 -0.01975,0.548217 -0.01976,0.271638 -0.01976,0.592666 0,0.187678 0.01482,0.365478 0.01975,0.172861 0.05927,0.321028 h -0.330906 l -0.123472,-0.395111 h -0.04939 q -0.05433,0.07408 -0.13335,0.153105 -0.07902,0.07408 -0.187678,0.13335 -0.108655,0.05927 -0.251883,0.09878 -0.138289,0.03951 -0.321028,0.03951 -0.182739,0 -0.335844,-0.04939 -0.153106,-0.05433 -0.2667,-0.148167 -0.108656,-0.09384 -0.172861,-0.227188 -0.06421,-0.138289 -0.06421,-0.306212 0,-0.22225 0.09384,-0.385233 0.09878,-0.162983 0.251883,-0.2667 0.153106,-0.103716 0.345722,-0.153105 0.197556,-0.04939 0.390173,-0.04939 0.153105,0 0.256822,0.0049 0.108655,0.0049 0.1778,0.01482 0.07408,0.0049 0.123472,0.01482 0.04939,0.0049 0.0889,0.0099 0.0099,-0.07408 0.01482,-0.128411 0.0049,-0.05433 0.0049,-0.138289 0,-0.138289 -0.02963,-0.232128 -0.02963,-0.09384 -0.09878,-0.148167 -0.06421,-0.05927 -0.177799,-0.08396 -0.113595,-0.02469 -0.276578,-0.02469 -0.09384,0 -0.207434,0.01482 -0.113594,0.01482 -0.227188,0.04445 -0.113595,0.0247 -0.227189,0.06421 -0.108656,0.03951 -0.197556,0.08396 z m 1.545872,1.254477 q -0.03951,-0.0049 -0.08396,-0.01482 -0.04445,-0.0099 -0.113595,-0.01482 -0.06421,-0.0049 -0.158044,-0.0099 -0.0889,-0.0049 -0.22225,-0.0049 -0.306211,0 -0.48895,0.108656 -0.1778,0.108655 -0.1778,0.370417 0,0.197555 0.138289,0.296333 0.143228,0.09878 0.365478,0.09878 0.162983,0 0.286455,-0.03951 0.128411,-0.04445 0.217311,-0.103717 0.09384,-0.06421 0.148167,-0.138289 0.05927,-0.07902 0.0889,-0.153106 z"
           inkscape:connector-curvature="0" />
        <path
           id="path4513"
           style="stroke-width:0.26458332px"
           d="m 29.619396,39.581884 h 0.439561 v -0.523522 l 0.454378,-0.118533 v 0.642055 h 0.780344 v 0.385234 h -0.780344 v 1.323622 q 0,0.31115 0.07902,0.439561 0.07902,0.128411 0.271639,0.128411 0.123472,0 0.22225,-0.02469 0.103716,-0.02963 0.232128,-0.07408 l 0.103716,0.321028 q -0.158044,0.06914 -0.340783,0.113594 -0.1778,0.04939 -0.385233,0.04939 -0.345723,0 -0.493889,-0.187677 -0.143228,-0.187678 -0.143228,-0.612423 v -1.476727 h -0.439561 z"
           inkscape:connector-curvature="0" />
        <path
           id="path4515"
           style="stroke-width:0.26458332px"
           d="m 32.060673,39.581884 h 0.454378 v 2.592917 h -0.454378 z m -0.09384,-0.617361 q 0,-0.113594 0.0889,-0.202494 0.0889,-0.09384 0.232128,-0.09384 0.143228,0 0.237066,0.09384 0.09384,0.0889 0.09384,0.202494 0,0.113595 -0.09384,0.202495 -0.09384,0.08396 -0.237066,0.08396 -0.143228,0 -0.232128,-0.08396 -0.0889,-0.0889 -0.0889,-0.202495 z"
           inkscape:connector-curvature="0" />
        <path
           id="path4517"
           style="stroke-width:0.26458332px"
           d="m 35.450757,41.997001 q -0.172861,0.123472 -0.404989,0.182739 -0.232127,0.0642 -0.48895,0.0642 -0.325966,0 -0.558094,-0.09878 -0.227189,-0.09878 -0.370417,-0.276578 -0.143227,-0.1778 -0.207433,-0.429684 -0.06421,-0.251883 -0.06421,-0.558094 0,-0.656872 0.316089,-1.012472 0.321028,-0.360539 0.918634,-0.360539 0.261761,0 0.454377,0.04939 0.192617,0.04445 0.345723,0.113594 l -0.118534,0.370417 q -0.13335,-0.06914 -0.291394,-0.108656 -0.153106,-0.03951 -0.335845,-0.03951 -0.805038,0 -0.805038,0.987778 0,0.187678 0.04445,0.365478 0.04445,0.172861 0.143227,0.31115 0.09878,0.13335 0.256823,0.217311 0.162983,0.08396 0.395111,0.08396 0.207433,0 0.360538,-0.05433 0.158045,-0.05927 0.261762,-0.138289 z"
           inkscape:connector-curvature="0" />
      </g>
    </g>
    <g
       id="g4559"
       transform="translate(23.623512,-9.827381)">
      <path
         id="rect4505"
         d="m 69.17695,35.440479 h 19.262166 c 4.610823,0 8.322786,1.930643 8.322786,4.328795 v 9.485267 c 0,2.398152 -3.711963,4.328795 -8.322786,4.328795 H 69.17695 c -4.610823,0 -8.322786,-1.930643 -8.322786,-4.328795 v -9.485267 c 0,-2.398152 3.711963,-4.328795 8.322786,-4.328795 z"
         style="opacity:1;vector-effect:none;fill:#ff8080;fill-opacity:1;fill-rule:nonzero;stroke:#782121;stroke-width:0.78399998;stroke-linecap:butt;stroke-linejoin:miter;stroke-miterlimit:4;stroke-dasharray:none;stroke-dashoffset:0;stroke-opacity:1"
         inkscape:connector-curvature="0" />
      <g
         id="text4499"
         style="font-style:normal;font-variant:normal;font-weight:normal;font-stretch:normal;font-size:4.93888855px;line-height:125%;font-family:'PT Sans Caption';-inkscape-font-specification:'PT Sans Caption';letter-spacing:0px;word-spacing:0px;fill:#000000;fill-opacity:1;stroke:none;stroke-width:0.26458332px;stroke-linecap:butt;stroke-linejoin:miter;stroke-opacity:1"
         aria-label="Heap">
        <path
           id="path4521"
           style="stroke-width:0.26458332px"
           d="m 75.14558,44.20076 h -1.753306 v 1.545872 H 72.898385 V 42.28941 h 0.493889 v 1.476727 H 75.14558 V 42.28941 h 0.493888 v 3.457222 H 75.14558 Z"
           inkscape:connector-curvature="0" />
        <path
           id="path4523"
           style="stroke-width:0.26458332px"
           d="m 78.619702,45.534259 q -0.172861,0.128412 -0.429683,0.207434 -0.256823,0.07408 -0.558095,0.07408 -0.325966,0 -0.567972,-0.09384 -0.237067,-0.09878 -0.390172,-0.276578 -0.153106,-0.1778 -0.227189,-0.429683 -0.07408,-0.251883 -0.07408,-0.563033 0,-0.66675 0.325966,-1.017411 0.330906,-0.3556 0.938389,-0.3556 0.192617,0 0.385233,0.04445 0.192617,0.03951 0.345723,0.158044 0.153105,0.113595 0.246944,0.316089 0.09878,0.202495 0.09878,0.528461 0,0.07902 -0.0049,0.182739 -0.0049,0.103717 -0.01976,0.202494 h -1.852083 q 0.0099,0.454378 0.217311,0.686506 0.207434,0.232128 0.706261,0.232128 0.207434,0 0.395111,-0.06914 0.187678,-0.07408 0.291395,-0.172861 z m -0.340783,-1.348316 q 0.0099,-0.395111 -0.162984,-0.558095 -0.167922,-0.162983 -0.474133,-0.162983 -0.345722,0 -0.548217,0.162983 -0.202494,0.162984 -0.237066,0.558095 z"
           inkscape:connector-curvature="0" />
        <path
           id="path4525"
           style="stroke-width:0.26458332px"
           d="m 79.432921,43.316698 q 0.4445,-0.212372 1.101372,-0.212372 0.296333,0 0.474133,0.07902 0.182739,0.07408 0.281517,0.192617 0.09878,0.118533 0.128411,0.2667 0.03457,0.143228 0.03457,0.286456 0,0.271639 -0.01976,0.548216 -0.01976,0.271639 -0.01976,0.592667 0,0.187678 0.01482,0.365478 0.01976,0.172861 0.05927,0.321027 h -0.330906 l -0.123472,-0.395111 h -0.04939 q -0.05433,0.07408 -0.13335,0.153106 -0.07902,0.07408 -0.187678,0.13335 -0.108655,0.05927 -0.251883,0.09878 -0.138289,0.03951 -0.321028,0.03951 -0.182739,0 -0.335844,-0.04939 -0.153106,-0.05433 -0.2667,-0.148167 -0.108656,-0.09384 -0.172861,-0.227189 -0.06421,-0.138289 -0.06421,-0.306211 0,-0.22225 0.09384,-0.385233 0.09878,-0.162983 0.251883,-0.2667 0.153106,-0.103717 0.345723,-0.153106 0.197555,-0.04939 0.390172,-0.04939 0.153105,0 0.256822,0.0049 0.108655,0.0049 0.1778,0.01482 0.07408,0.0049 0.123472,0.01482 0.04939,0.0049 0.0889,0.0099 0.0099,-0.07408 0.01482,-0.128412 0.0049,-0.05433 0.0049,-0.138288 0,-0.138289 -0.02963,-0.232128 -0.02963,-0.09384 -0.09878,-0.148167 -0.06421,-0.05927 -0.1778,-0.08396 -0.113595,-0.02469 -0.276578,-0.02469 -0.09384,0 -0.207433,0.01482 -0.113595,0.01482 -0.227189,0.04445 -0.113595,0.0247 -0.227189,0.06421 -0.108656,0.03951 -0.197556,0.08396 z m 1.545872,1.254478 q -0.03951,-0.0049 -0.08396,-0.01482 -0.04445,-0.0099 -0.113594,-0.01482 -0.06421,-0.0049 -0.158045,-0.0099 -0.0889,-0.0049 -0.22225,-0.0049 -0.306211,0 -0.48895,0.108656 -0.1778,0.108655 -0.1778,0.370416 0,0.197556 0.138289,0.296334 0.143228,0.09878 0.365478,0.09878 0.162983,0 0.286455,-0.03951 0.128411,-0.04445 0.217311,-0.103716 0.09384,-0.06421 0.148167,-0.138289 0.05927,-0.07902 0.0889,-0.153106 z"
           inkscape:connector-curvature="0" />
        <path
           id="path4527"
           style="stroke-width:0.26458332px"
           d="m 82.337141,43.153715 h 0.306212 l 0.0889,0.330906 h 0.04445 q 0.13335,-0.192617 0.345723,-0.296334 0.212372,-0.108655 0.479072,-0.108655 0.563033,0 0.839611,0.316089 0.276578,0.31115 0.276578,0.997655 0,0.325967 -0.09384,0.592667 -0.0889,0.261761 -0.261761,0.449439 -0.167922,0.182739 -0.414867,0.281516 -0.242005,0.09878 -0.543278,0.09878 -0.09878,0 -0.182739,-0.0099 -0.07902,-0.0049 -0.148166,-0.02469 -0.06915,-0.01482 -0.138289,-0.03457 -0.06915,-0.0247 -0.143228,-0.05433 v 1.042105 h -0.454378 z m 1.160639,0.31115 q -0.296333,0 -0.464255,0.148167 -0.167923,0.148166 -0.242006,0.454378 v 1.195211 q 0.113595,0.07902 0.246945,0.123472 0.13335,0.04445 0.340783,0.04445 0.40005,0 0.627239,-0.261761 0.227189,-0.261761 0.227189,-0.780345 0,-0.419805 -0.167923,-0.671689 -0.167922,-0.251883 -0.567972,-0.251883 z"
           inkscape:connector-curvature="0" />
      </g>
    </g>
    <g
       id="g4568"
       transform="translate(12.095236,-40.254463)">
      <path
         id="rect4503"
         d="m 35.537071,65.867561 h 19.262165 c 4.610824,0 8.322787,1.930643 8.322787,4.328795 v 9.485267 c 0,2.398152 -3.711963,4.328795 -8.322787,4.328795 H 35.537071 c -4.610823,0 -8.322786,-1.930643 -8.322786,-4.328795 v -9.485267 c 0,-2.398152 3.711963,-4.328795 8.322786,-4.328795 z"
         style="opacity:1;vector-effect:none;fill:#00ffff;fill-opacity:1;fill-rule:nonzero;stroke:#0000ff;stroke-width:0.78399998;stroke-linecap:butt;stroke-linejoin:miter;stroke-miterlimit:4;stroke-dasharray:none;stroke-dashoffset:0;stroke-opacity:1"
         inkscape:connector-curvature="0" />
      <g
         id="text4495"
         style="font-style:normal;font-variant:normal;font-weight:normal;font-stretch:normal;font-size:4.93888855px;line-height:125%;font-family:'PT Sans Caption';-inkscape-font-specification:'PT Sans Caption';letter-spacing:0px;word-spacing:0px;fill:#000000;fill-opacity:1;stroke:none;stroke-width:0.26458332px;stroke-linecap:butt;stroke-linejoin:miter;stroke-opacity:1"
         aria-label="Stack">
        <path
           id="path4531"
           style="stroke-width:0.26458332px"
           d="m 40.676968,75.756375 q 0,-0.202494 -0.13335,-0.321028 -0.13335,-0.118533 -0.335844,-0.202494 -0.202495,-0.0889 -0.434623,-0.162983 -0.232127,-0.07902 -0.434622,-0.197556 -0.202494,-0.118533 -0.335844,-0.306211 -0.13335,-0.187678 -0.13335,-0.48895 0,-0.419806 0.306211,-0.676628 0.31115,-0.256822 0.884061,-0.256822 0.330905,0 0.607483,0.04939 0.276578,0.04939 0.434622,0.128411 l -0.153105,0.414867 q -0.123472,-0.06421 -0.370417,-0.113595 -0.246944,-0.05433 -0.543278,-0.05433 -0.335844,0 -0.503766,0.143228 -0.167922,0.143228 -0.167922,0.330906 0,0.192616 0.13335,0.31115 0.13335,0.118533 0.335844,0.212372 0.202494,0.0889 0.434622,0.172861 0.232128,0.08396 0.434622,0.207433 0.202495,0.123473 0.335845,0.306211 0.13335,0.1778 0.13335,0.459317 0,0.232128 -0.0889,0.419806 -0.0889,0.187677 -0.256822,0.321027 -0.167923,0.13335 -0.404989,0.207434 -0.237067,0.06914 -0.538339,0.06914 -0.404989,0 -0.686506,-0.06421 -0.276577,-0.05927 -0.419805,-0.128411 l 0.162983,-0.429684 q 0.123472,0.06421 0.370417,0.13335 0.251883,0.06421 0.553155,0.06421 0.172861,0 0.321028,-0.02963 0.148167,-0.03457 0.256822,-0.09878 0.113595,-0.06915 0.172861,-0.172861 0.06421,-0.103717 0.06421,-0.246945 z"
           inkscape:connector-curvature="0" />
        <path
           id="path4533"
           style="stroke-width:0.26458332px"
           d="m 41.521904,74.072214 h 0.439561 v -0.523522 l 0.454378,-0.118533 v 0.642055 h 0.780344 v 0.385233 h -0.780344 v 1.323623 q 0,0.31115 0.07902,0.439561 0.07902,0.128411 0.271639,0.128411 0.123472,0 0.22225,-0.02469 0.103716,-0.02963 0.232127,-0.07408 l 0.103717,0.321028 q -0.158044,0.06914 -0.340783,0.113594 -0.1778,0.04939 -0.385234,0.04939 -0.345722,0 -0.493888,-0.187678 -0.143228,-0.187677 -0.143228,-0.612422 v -1.476728 h -0.439561 z"
           inkscape:connector-curvature="0" />
        <path
           id="path4535"
           style="stroke-width:0.26458332px"
           d="m 43.805136,74.235197 q 0.4445,-0.212372 1.101372,-0.212372 0.296334,0 0.474134,0.07902 0.182739,0.07408 0.281516,0.192617 0.09878,0.118533 0.128411,0.2667 0.03457,0.143228 0.03457,0.286456 0,0.271638 -0.01976,0.548216 -0.01975,0.271639 -0.01975,0.592667 0,0.187678 0.01482,0.365478 0.01976,0.172861 0.05927,0.321027 h -0.330906 l -0.123472,-0.395111 h -0.04939 q -0.05433,0.07408 -0.13335,0.153106 -0.07902,0.07408 -0.187677,0.13335 -0.108656,0.05927 -0.251884,0.09878 -0.138289,0.03951 -0.321028,0.03951 -0.182738,0 -0.335844,-0.04939 -0.153105,-0.05433 -0.2667,-0.148167 -0.108655,-0.09384 -0.172861,-0.227189 -0.06421,-0.138289 -0.06421,-0.306211 0,-0.22225 0.09384,-0.385233 0.09878,-0.162983 0.251884,-0.2667 0.153105,-0.103717 0.345722,-0.153106 0.197555,-0.04939 0.390172,-0.04939 0.153106,0 0.256822,0.0049 0.108656,0.0049 0.1778,0.01482 0.07408,0.0049 0.123472,0.01482 0.04939,0.0049 0.0889,0.0099 0.0099,-0.07408 0.01482,-0.128411 0.0049,-0.05433 0.0049,-0.138288 0,-0.138289 -0.02963,-0.232128 -0.02963,-0.09384 -0.09878,-0.148167 -0.06421,-0.05927 -0.1778,-0.08396 -0.113595,-0.02469 -0.276578,-0.02469 -0.09384,0 -0.207433,0.01482 -0.113595,0.01482 -0.227189,0.04445 -0.113595,0.02469 -0.227189,0.06421 -0.108655,0.03951 -0.197555,0.08396 z m 1.545872,1.254478 q -0.03951,-0.0049 -0.08396,-0.01482 -0.04445,-0.0099 -0.113594,-0.01482 -0.06421,-0.0049 -0.158045,-0.0099 -0.0889,-0.0049 -0.22225,-0.0049 -0.306211,0 -0.48895,0.108656 -0.177799,0.108655 -0.177799,0.370416 0,0.197556 0.138288,0.296334 0.143228,0.09878 0.365478,0.09878 0.162983,0 0.286456,-0.03951 0.128411,-0.04445 0.217311,-0.103716 0.09384,-0.06421 0.148166,-0.138289 0.05927,-0.07902 0.0889,-0.153106 z"
           inkscape:connector-curvature="0" />
        <path
           id="path4537"
           style="stroke-width:0.26458332px"
           d="m 48.665157,76.487331 q -0.172861,0.123472 -0.404989,0.182739 -0.232128,0.06421 -0.48895,0.06421 -0.325966,0 -0.558094,-0.09878 -0.227189,-0.09878 -0.370417,-0.276577 -0.143228,-0.1778 -0.207433,-0.429684 -0.06421,-0.251883 -0.06421,-0.558094 0,-0.656872 0.316089,-1.012472 0.321028,-0.360539 0.918633,-0.360539 0.261762,0 0.454378,0.04939 0.192617,0.04445 0.345722,0.113594 l -0.118533,0.370417 q -0.13335,-0.06915 -0.291394,-0.108656 -0.153106,-0.03951 -0.335845,-0.03951 -0.805039,0 -0.805039,0.987778 0,0.187678 0.04445,0.365478 0.04445,0.172861 0.143228,0.31115 0.09878,0.13335 0.256822,0.217311 0.162984,0.08396 0.395111,0.08396 0.207434,0 0.360539,-0.05433 0.158045,-0.05927 0.261761,-0.138289 z"
           inkscape:connector-curvature="0" />
        <path
           id="path4539"
           style="stroke-width:0.26458332px"
           d="m 50.05939,75.499553 h -0.281517 v 1.165578 h -0.454378 v -3.457222 h 0.454378 v 2.044699 l 0.256822,-0.08396 0.859367,-1.096433 h 0.5334 l -0.824795,1.002595 h 0.0049 l -0.271639,0.197555 0.31115,0.22225 0.913695,1.170517 h -0.572911 z"
           inkscape:connector-curvature="0" />
      </g>
    </g>
  </g>
</svg>
